<?xml version="1.0" encoding="iso-8859-1"?>
<!-- Generator: Adobe Illustrator 19.0.0, SVG Export Plug-In . SVG Version: 6.00 Build 0)  -->
<svg version="1.1" id="Capa_1" xmlns="http://www.w3.org/2000/svg" xmlns:xlink="http://www.w3.org/1999/xlink" x="0px" y="0px"
	 viewBox="0 0 512 512" style="enable-background:new 0 0 512 512;" xml:space="preserve">
<rect x="142" y="448" style="fill:#41589C;" width="228" height="54"/>
<rect x="203.13" y="358" style="fill:#A2ACBA;" width="106" height="90"/>
<rect x="10" y="10" style="fill:#BFC4D8;" width="492" height="348"/>
<rect x="47" y="47.962" style="fill:#A0E070;" width="418" height="272.08"/>
<rect x="83" y="87.02" style="fill:#023989;" width="98" height="148"/>
<rect x="130.98" y="135" style="fill:#FFFFFF;" width="98" height="148"/>
<path d="M419,157.431c0,5.523,4.478,10,10,10s10-4.477,10-10c0-20.215-15.318-37.163-35.747-41.408v-4.529c0-5.523-4.478-10-10-10
	s-10,4.477-10,10v4.529c-20.429,4.245-35.746,21.193-35.746,41.408s15.317,37.163,35.746,41.408v44.156
	c-9.244-3.409-15.746-11.395-15.746-20.68c0-5.523-4.478-10-10-10s-10,4.477-10,10c0,20.215,15.317,37.163,35.746,41.408v5.771
	c0,5.523,4.478,10,10,10s10-4.477,10-10v-5.771C423.682,259.478,439,242.53,439,222.315s-15.318-37.163-35.747-41.408v-44.156
	C412.497,140.16,419,148.146,419,157.431z M367.507,157.431c0-9.285,6.502-17.271,15.746-20.68v41.359
	C374.009,174.702,367.507,166.716,367.507,157.431z M419,222.315c0,9.285-6.503,17.271-15.747,20.68v-41.36
	C412.497,205.044,419,213.03,419,222.315z"/>
<path d="M502,0H10C4.478,0,0,4.477,0,10v348c0,5.523,4.478,10,10,10h183.127v70H142c-5.522,0-10,4.477-10,10v54
	c0,5.523,4.478,10,10,10h228c5.522,0,10-4.477,10-10v-54c0-5.523-4.478-10-10-10h-50.873v-70H502c5.522,0,10-4.477,10-10V10
	C512,4.477,507.522,0,502,0z M299.127,438h-9.877c-5.522,0-10,4.477-10,10s4.478,10,10,10H360v34H152v-34h70.75
	c5.522,0,10-4.477,10-10s-4.478-10-10-10h-9.623v-70h86V438z M492,348H20V20h472V348z"/>
<path d="M47,329.962h418c5.522,0,10-4.477,10-10v-272c0-5.523-4.478-10-10-10H47c-5.522,0-10,4.477-10,10v272
	C37,325.485,41.478,329.962,47,329.962z M57,57.962h398v252H57V57.962z"/>
<path d="M255.281,458h0.302c5.522,0,10-4.477,10-10s-4.478-10-10-10h-0.302c-5.522,0-10,4.477-10,10S249.759,458,255.281,458z"/>
<path d="M228.982,192.667c-5.522,0-10,4.477-10,10v0.197c0,5.523,4.478,10,10,10s10-4.477,10-10v-0.197
	C238.982,197.144,234.505,192.667,228.982,192.667z"/>
<path d="M228.982,125H191V87.017c0-5.523-4.478-10-10-10H83c-5.522,0-10,4.477-10,10v148c0,5.523,4.478,10,10,10h37.982V283
	c0,5.523,4.478,10,10,10h98c5.522,0,10-4.477,10-10v-49.667c0-5.523-4.478-10-10-10s-10,4.477-10,10V273h-78V145h78v27.167
	c0,5.523,4.478,10,10,10s10-4.477,10-10V135C238.982,129.477,234.505,125,228.982,125z M130.982,125c-5.522,0-10,4.477-10,10v90.017
	H93v-128h78V125H130.982z"/>
<path d="M302.344,183.423c-3.906-3.905-10.236-3.905-14.143,0c-3.905,3.905-3.905,10.237,0,14.143l1.438,1.438H266.38
	c-5.522,0-10,4.477-10,10s4.478,10,10,10h23.253l-1.432,1.432c-3.905,3.905-3.905,10.237,0,14.143
	c1.953,1.953,4.512,2.929,7.071,2.929s5.118-0.976,7.071-2.929l18.506-18.506c3.905-3.905,3.905-10.237,0-14.143L302.344,183.423z"
	/>
<g>
</g>
<g>
</g>
<g>
</g>
<g>
</g>
<g>
</g>
<g>
</g>
<g>
</g>
<g>
</g>
<g>
</g>
<g>
</g>
<g>
</g>
<g>
</g>
<g>
</g>
<g>
</g>
<g>
</g>
</svg>
